HIERARCHY
ROOT hip
{
  OFFSET 0 0 0
  CHANNELS 6 Xposition Yposition Zposition Zrotation Yrotation Xrotation
  JOINT abdomen
  {
    OFFSET 0 20.6881 -0.73152
    CHANNELS 3 Zrotation Xrotation Yrotation
    JOINT chest
    {
      OFFSET 0 11.7043 -0.48768
      CHANNELS 3 Zrotation Xrotation Yrotation
      JOINT neck
      {
        OFFSET 0 22.1894 -2.19456
        CHANNELS 3 Zrotation Xrotation Yrotation
        JOINT head
        {
          OFFSET -0.24384 7.07133 1.2192
          CHANNELS 3 Zrotation Xrotation Yrotation
          JOINT leftEye
          {
            OFFSET 4.14528 8.04674 8.04672
            CHANNELS 3 Zrotation Xrotation Yrotation
            End Site
            {
              OFFSET 1 0 0
            }
          }
          JOINT rightEye
          {
            OFFSET -3.6576 8.04674 8.04672
            CHANNELS 3 Zrotation Xrotation Yrotation
            End Site
            {
              OFFSET 1 0 0
            }
          }
        }
      }
      JOINT rCollar
      {
        OFFSET -2.68224 19.2634 -4.8768
        CHANNELS 3 Zrotation Xrotation Yrotation
        JOINT rShldr
        {
          OFFSET -8.77824 -1.95073 1.46304
          CHANNELS 3 Zrotation Xrotation Yrotation
          JOINT rForeArm
          {
            OFFSET -28.1742 -1.7115 0.48768
            CHANNELS 3 Zrotation Xrotation Yrotation
            JOINT rHand
            {
              OFFSET -22.5879 0.773209 7.07136
              CHANNELS 3 Zrotation Xrotation Yrotation
              JOINT rThumb1
              {
                OFFSET -1.2192 -0.487915 3.41376
                CHANNELS 3 Zrotation Xrotation Yrotation
                JOINT rThumb2
                {
                  OFFSET -3.37035 -0.52449 3.41376
                  CHANNELS 3 Zrotation Xrotation Yrotation
                  End Site
                  {
                    OFFSET -1.78271 -1.18214 1.43049
                  }
                }
              }
              JOINT rIndex1
              {
                OFFSET -7.75947 0.938293 5.60832
                CHANNELS 3 Zrotation Xrotation Yrotation
                JOINT rIndex2
                {
                  OFFSET -2.54057 -0.884171 1.56538
                  CHANNELS 3 Zrotation Xrotation Yrotation
                  End Site
                  {
                    OFFSET -1.62519 -0.234802 1.16502
                  }
                }
              }
              JOINT rMid1
              {
                OFFSET -8.24714 1.18213 3.41376
                CHANNELS 3 Zrotation Xrotation Yrotation
                JOINT rMid2
                {
                  OFFSET -3.10165 -0.590103 1.0647
                  CHANNELS 3 Zrotation Xrotation Yrotation
                  End Site
                  {
                    OFFSET -2.48547 -0.328903 0.83742
                  }
                }
              }
              JOINT rRing1
              {
                OFFSET -8.82822 0.546677 1.51678
                CHANNELS 3 Zrotation Xrotation Yrotation
                JOINT rRing2
                {
                  OFFSET -2.60934 -0.819778 -0.0198488
                  CHANNELS 3 Zrotation Xrotation Yrotation
                  End Site
                  {
                    OFFSET -2.33842 -0.294052 0.168128
                  }
                }
              }
              JOINT rPinky1
              {
                OFFSET -8.27202 -0.0477905 -0.4584
                CHANNELS 3 Zrotation Xrotation Yrotation
                JOINT rPinky2
                {
                  OFFSET -1.82734 -0.647385 -0.700984
                  CHANNELS 3 Zrotation Xrotation Yrotation
                  End Site
                  {
                    OFFSET -1.69225 -0.51767 -0.607171
                  }
                }
              }
            }
          }
        }
      }
      JOINT lCollar
      {
        OFFSET 2.68224 19.2634 -4.8768
        CHANNELS 3 Zrotation Xrotation Yrotation
        JOINT lShldr
        {
          OFFSET 8.77824 -1.95073 1.46304
          CHANNELS 3 Zrotation Xrotation Yrotation
          JOINT lForeArm
          {
            OFFSET 28.1742 -1.7115 0.48768
            CHANNELS 3 Zrotation Xrotation Yrotation
            JOINT lHand
            {
              OFFSET 22.5879 0.773209 7.07136
              CHANNELS 3 Zrotation Xrotation Yrotation
              JOINT lThumb1
              {
                OFFSET 1.2192 -0.487915 3.41376
                CHANNELS 3 Zrotation Xrotation Yrotation
                JOINT lThumb2
                {
                  OFFSET 3.37035 -0.52449 3.41376
                  CHANNELS 3 Zrotation Xrotation Yrotation
                  End Site
                  {
                    OFFSET 1.78271 -1.18214 1.43049
                  }
                }
              }
              JOINT lIndex1
              {
                OFFSET 7.75947 0.938293 5.60832
                CHANNELS 3 Zrotation Xrotation Yrotation
                JOINT lIndex2
                {
                  OFFSET 2.54057 -0.884171 1.56538
                  CHANNELS 3 Zrotation Xrotation Yrotation
                  End Site
                  {
                    OFFSET 1.62519 -0.234802 1.16502
                  }
                }
              }
              JOINT lMid1
              {
                OFFSET 8.24714 1.18213 3.41376
                CHANNELS 3 Zrotation Xrotation Yrotation
                JOINT lMid2
                {
                  OFFSET 3.10165 -0.590103 1.0647
                  CHANNELS 3 Zrotation Xrotation Yrotation
                  End Site
                  {
                    OFFSET 2.48547 -0.328903 0.83742
                  }
                }
              }
              JOINT lRing1
              {
                OFFSET 8.82822 0.546677 1.51678
                CHANNELS 3 Zrotation Xrotation Yrotation
                JOINT lRing2
                {
                  OFFSET 2.60934 -0.819778 -0.0198488
                  CHANNELS 3 Zrotation Xrotation Yrotation
                  End Site
                  {
                    OFFSET 2.33842 -0.294052 0.168128
                  }
                }
              }
              JOINT lPinky1
              {
                OFFSET 8.27202 -0.0477905 -0.4584
                CHANNELS 3 Zrotation Xrotation Yrotation
                JOINT lPinky2
                {
                  OFFSET 1.82734 -0.647385 -0.700984
                  CHANNELS 3 Zrotation Xrotation Yrotation
                  End Site
                  {
                    OFFSET 1.69225 -0.51767 -0.607171
                  }
                }
              }
            }
          }
        }
      }
    }
  }
  JOINT rButtock
  {
    OFFSET -8.77824 4.35084 1.2192
    CHANNELS 3 Zrotation Xrotation Yrotation
    JOINT rThigh
    {
      OFFSET 0 -1.70687 -2.19456
      CHANNELS 3 Zrotation Xrotation Yrotation
      JOINT rShin
      {
        OFFSET 0 -36.8199 0.73152
        CHANNELS 3 Zrotation Xrotation Yrotation
        JOINT rFoot
        {
          OFFSET 0.73152 -45.1104 -5.12064
          CHANNELS 3 Zrotation Xrotation Yrotation
          End Site
          {
            OFFSET -1.1221 -3.69964 12.103
          }
        }
      }
    }
  }
  JOINT lButtock
  {
    OFFSET 8.77824 4.35084 1.2192
    CHANNELS 3 Zrotation Xrotation Yrotation
    JOINT lThigh
    {
      OFFSET 0 -1.70687 -2.19456
      CHANNELS 3 Zrotation Xrotation Yrotation
      JOINT lShin
      {
        OFFSET 0 -36.8199 0.73152
        CHANNELS 3 Zrotation Xrotation Yrotation
        JOINT lFoot
        {
          OFFSET -0.73152 -45.1104 -5.12064
          CHANNELS 3 Zrotation Xrotation Yrotation
          End Site
          {
            OFFSET 1.1221 -3.69964 12.103
          }
        }
      }
    }
  }
}
MOTION
Frames:	5
Frame Time:	0.00833333
1.94093 82.2556 199.075 0.0 0.0 0.0 -4.77302 0.00925678 -0.128165 -1.31325 0.0404281 -0.226877 6.98637e-14 -1.59028e-15 1.2921e-15 2.10619e-13 -6.36111e-15 3.77846e-15 -0.0 0.0 0.0 -0.0 0.0 0.0 3.5088e-14 4.71337e-16 9.44227e-16 7.42673e-13 1.03927e-14 1.70955e-14 1.27434e-11 -3.4835e-12 1.65389e-13 1.4592e-10 5.64976e-12 2.96746e-12 3.44183e-10 4.69337e-12 6.80003e-12 5.94383e-10 8.10405e-12 1.17331e-11 3.44187e-10 4.69331e-12 6.79048e-12 7.73091 5.47488 0.417314 3.44181e-10 4.69271e-12 6.80639e-12 2.90554 0.965183 0.102902 3.44191e-10 4.6938e-12 6.80003e-12 10.2786 0.731801 0.0259123 3.44179e-10 4.69688e-12 6.80957e-12 2.22167 -0.733487 -0.20892 3.50853e-14 4.73667e-16 4.96962e-16 7.39502e-13 9.90196e-15 1.5704e-14 1.27583e-11 4.15957e-12 1.49486e-13 1.45937e-10 -2.01672e-12 3.02153e-12 3.44237e-10 4.64613e-12 6.82229e-12 5.94481e-10 8.01818e-12 1.17784e-11 3.44232e-10 4.64639e-12 6.82865e-12 -7.73091 5.47488 -0.417314 3.44236e-10 4.6455e-12 6.81593e-12 -2.90554 0.965183 -0.102902 3.4423e-10 4.6459e-12 6.82309e-12 -10.2786 0.731801 -0.0259123 3.44238e-10 4.64759e-12 6.81911e-12 -2.22167 -0.733487 0.20892 -2.03217e-16 0.0 -3.88251e-19 -3.15664 -1.94856 0.0347031 -0.00820908 -2.07871 -0.0671834 -0.470621 4.00263 0.134278 2.03217e-16 0.0 3.88251e-19 -4.06348 -11.8418 0.547662 -0.0161007 15.8338 -0.442581 0.593058 -4.0161 0.0187016
1.7192 80.7189 190.945 179.856 -3.3205 -167.456 -5.09127 -3.95854 -1.14993 -0.671421 2.13606 -0.49983 -1.54837 5.27206 -0.592861 3.41946 -14.5584 0.726116 -0.0 0.0 0.0 -0.0 0.0 0.0 2.40641e-14 8.4702e-14 8.67703e-15 23.1982 0.98691 -0.68651 -3.47958 -1.45783 5.56121 0.209384 10.1819 1.35077 8.04655e-10 -1.48047e-10 -2.64516e-10 1.38071e-09 -2.45319e-10 -4.72182e-10 8.0466e-10 -1.48047e-10 -2.64527e-10 7.73091 5.47488 0.417314 8.04654e-10 -1.48047e-10 -2.64513e-10 2.90554 0.965183 0.102902 8.04663e-10 -1.48046e-10 -2.64517e-10 10.2786 0.731801 0.0259123 8.04651e-10 -1.48044e-10 -2.64508e-10 2.22167 -0.733487 -0.20892 2.40488e-14 8.47027e-14 8.3047e-15 -22.9793 3.6962 -1.52042 2.56748 -0.958399 -4.20927 -0.137079 8.37539 -1.1355 -3.69611e-10 -7.8037e-11 4.90761e-10 -6.24228e-10 -1.19992e-10 8.62394e-10 -3.69616e-10 -7.80377e-11 4.90768e-10 -7.73091 5.47488 -0.417314 -3.69613e-10 -7.80407e-11 4.90754e-10 -2.90554 0.965183 -0.102902 -3.69618e-10 -7.80388e-11 4.90761e-10 -10.2786 0.731801 -0.0259123 -3.69608e-10 -7.80375e-11 4.90758e-10 -2.22167 -0.733487 0.20892 -2.03217e-16 0.0 -3.88251e-19 -2.4016 -6.77732 -1.95084 -0.0290033 4.9983 0.0321191 -0.194815 -2.78173 1.51741 2.03217e-16 0.0 3.88251e-19 -3.54807 -15.4589 0.654937 -0.034303 19.8386 -0.441646 0.312719 -5.99855 -2.86225
1.71443 80.7277 190.845 179.857 -3.3838 -167.617 -5.57969 -8.15337 -2.25052 0.030627 4.35212 -0.791039 -3.06416 10.8502 -1.23384 7.48268 -29.9435 1.66823 -0.0 0.0 0.0 -0.0 0.0 0.0 1.21559e-14 1.82492e-13 1.54773e-14 47.7411 2.04127 -1.40306 -6.85565 -2.95555 11.4578 -0.124444 20.9063 2.92551 1.35925e-09 -3.29471e-10 -5.80105e-10 2.32804e-09 -5.46383e-10 -1.03538e-09 1.35925e-09 -3.29471e-10 -5.80116e-10 7.73091 5.47488 0.417314 1.35925e-09 -3.2947e-10 -5.80104e-10 2.90554 0.965183 0.102902 1.35926e-09 -3.2947e-10 -5.80106e-10 10.2786 0.731801 0.0259123 1.35924e-09 -3.29469e-10 -5.80097e-10 2.22167 -0.733487 -0.20892 1.21277e-14 1.82491e-13 1.51884e-14 -47.0389 7.81629 -3.18464 5.16205 -1.97047 -8.71899 0.0960689 17.0286 -2.39531 -1.1955e-09 -1.75139e-10 1.05521e-09 -2.03372e-09 -2.70461e-10 1.85493e-09 -1.19551e-09 -1.7514e-10 1.05522e-09 -7.73091 5.47488 -0.417314 -1.1955e-09 -1.75146e-10 1.05521e-09 -2.90554 0.965183 -0.102902 -1.19551e-09 -1.75142e-10 1.05521e-09 -10.2786 0.731801 -0.0259123 -1.1955e-09 -1.75141e-10 1.05521e-09 -2.22167 -0.733487 0.20892 -2.03217e-16 0.0 -3.88251e-19 -1.97355 -11.8707 -4.10384 -0.0781562 12.4804 0.140184 0.45623 -9.95023 3.01555 2.03217e-16 0.0 3.88251e-19 -2.9886 -19.2899 0.771957 -0.0536489 24.0684 -0.442995 -0.201295 -8.06586 -5.93103
1.799 80.7376 190.737 180.091 -3.407 -167.812 -6.1602 -11.8779 -3.255 0.672506 6.32652 -1.0511 -4.30691 15.8093 -1.84071 11.7228 -43.6415 2.91408 -0.0 0.0 0.0 -0.0 0.0 0.0 2.01633e-15 2.53163e-13 2.41426e-14 69.6656 2.95903 -2.06198 -9.60116 -4.20896 16.7246 -1.00663 30.4723 4.62899 1.7256e-09 -4.53527e-10 -8.07149e-10 2.95337e-09 -7.52165e-10 -1.44001e-09 1.72561e-09 -4.53527e-10 -8.07161e-10 7.73091 5.47488 0.417314 1.7256e-09 -4.53526e-10 -8.07151e-10 2.90554 0.965183 0.102902 1.72561e-09 -4.53525e-10 -8.0715e-10 10.2786 0.731801 0.0259123 1.7256e-09 -4.53525e-10 -8.07142e-10 2.22167 -0.733487 -0.20892 1.97582e-15 2.53161e-13 2.39202e-14 -68.3406 11.0571 -4.63806 7.28337 -2.8132 -12.6415 0.672131 25.0846 -3.7216 -1.79731e-09 -2.43403e-10 1.45864e-09 -3.06165e-09 -3.76013e-10 2.56362e-09 -1.79731e-09 -2.43406e-10 1.45865e-09 -7.73091 5.47488 -0.417314 -1.79731e-09 -2.43413e-10 1.45863e-09 -2.90554 0.965183 -0.102902 -1.79731e-09 -2.43408e-10 1.45864e-09 -10.2786 0.731801 -0.0259123 -1.7973e-09 -2.43408e-10 1.45863e-09 -2.22167 -0.733487 0.20892 -2.03217e-16 0.0 -3.88251e-19 -1.93073 -16.3575 -6.13 -0.147044 19.1521 0.243761 1.37129 -16.3065 4.45865 2.03217e-16 0.0 3.88251e-19 -2.4726 -22.6924 0.890664 -0.070298 27.8481 -0.44643 -0.851435 -9.87295 -8.70694
1.89916 80.7427 190.661 180.353 -3.437 -167.921 -6.65969 -14.442 -3.96027 1.12087 7.69753 -1.22836 -5.10794 19.2271 -2.30355 15.3281 -53.1514 4.29103 -0.0 0.0 0.0 -0.0 0.0 0.0 -3.70147e-15 2.56036e-13 3.74709e-14 84.9941 3.53683 -2.57443 -11.3599 -5.00972 20.3777 -2.06392 37.2097 6.12592 1.62135e-09 -4.34162e-10 -8.12832e-10 2.7737e-09 -7.19747e-10 -1.44825e-09 1.62136e-09 -4.34162e-10 -8.12845e-10 7.73091 5.47488 0.417314 1.62135e-09 -4.34161e-10 -8.12835e-10 2.90554 0.965183 0.102902 1.62136e-09 -4.34161e-10 -8.12834e-10 10.2786 0.731801 0.0259123 1.62135e-09 -4.34161e-10 -8.12826e-10 2.22167 -0.733487 -0.20892 -3.75318e-15 2.56032e-13 3.72721e-14 -83.2497 12.1367 -5.46861 8.53515 -3.29757 -15.0816 1.41251 31.6798 -4.97558 -1.83891e-09 -2.39575e-10 1.45949e-09 -3.13569e-09 -3.69272e-10 2.5627e-09 -1.83892e-09 -2.39579e-10 1.4595e-09 -7.73091 5.47488 -0.417314 -1.83891e-09 -2.39587e-10 1.45948e-09 -2.90554 0.965183 -0.102902 -1.83892e-09 -2.39581e-10 1.45949e-09 -10.2786 0.731801 -0.0259123 -1.8389e-09 -2.39581e-10 1.45949e-09 -2.22167 -0.733487 0.20892 -2.03217e-16 0.0 -3.88251e-19 -2.10635 -19.3995 -7.64849 -0.210249 23.7982 0.322388 2.22444 -20.6744 5.58409 2.03217e-16 0.0 3.88251e-19 -2.09578 -25.0236 0.997781 -0.0807887 30.5027 -0.450299 -1.41668 -11.1078 -10.6825
